<svg width="93" height="93" viewBox="0 0 93 93" fill="none" xmlns="http://www.w3.org/2000/svg">
<path d="M91.7259 37.8073H88.0099V37.6159H46.4908V56.0688H72.5625C68.7589 66.8107 58.5382 74.5217 46.4908 74.5217C31.2048 74.5217 18.8113 62.1283 18.8113 46.8423C18.8113 31.5564 31.2048 19.1629 46.4908 19.1629C53.5467 19.1629 59.966 21.8247 64.8538 26.1727L77.9023 13.1242C69.663 5.44545 58.642 0.709961 46.4908 0.709961C21.0142 0.709961 0.358398 21.3657 0.358398 46.8423C0.358398 72.3189 21.0142 92.9747 46.4908 92.9747C71.9674 92.9747 92.6231 72.3189 92.6231 46.8423C92.6231 43.7491 92.3048 40.7298 91.7259 37.8073Z" fill="#FFC107"/>
<path d="M5.67749 25.37L20.8343 36.4856C24.9354 26.3319 34.8677 19.1629 46.4908 19.1629C53.5467 19.1629 59.9661 21.8247 64.8538 26.1727L77.9023 13.1242C69.6631 5.44545 58.6421 0.709961 46.4908 0.709961C28.7714 0.709961 13.4047 10.7138 5.67749 25.37Z" fill="#FF3D00"/>
<path d="M46.4907 92.9752C58.4067 92.9752 69.234 88.415 77.4202 80.9992L63.1422 68.9171C58.5105 72.4255 52.7532 74.5222 46.4907 74.5222C34.4917 74.5222 24.3034 66.8712 20.4651 56.1938L5.42139 67.7846C13.0563 82.7246 28.5614 92.9752 46.4907 92.9752Z" fill="#4CAF50"/>
<path d="M91.7258 37.8072H88.0098V37.6157H46.4907V56.0687H72.5624C70.7356 61.2286 67.4164 65.678 63.1353 68.9188C63.1376 68.9165 63.1399 68.9165 63.1422 68.9142L77.4202 80.9963C76.4099 81.9143 92.6231 69.9084 92.6231 46.8422C92.6231 43.749 92.3048 40.7297 91.7258 37.8072Z" fill="#1976D2"/>
</svg>
