<svg width="35" height="35" viewBox="0 0 35 35" fill="none" xmlns="http://www.w3.org/2000/svg">
<path d="M13.1251 4.375C9.098 4.375 5.83341 7.63959 5.83341 11.6667C5.83341 15.6937 9.098 18.9583 13.1251 18.9583C17.1522 18.9583 20.4167 15.6937 20.4167 11.6667C20.4167 7.63959 17.1522 4.375 13.1251 4.375ZM8.75008 11.6667C8.75008 9.25042 10.7088 7.29167 13.1251 7.29167C15.5413 7.29167 17.5001 9.25042 17.5001 11.6667C17.5001 14.0829 15.5413 16.0417 13.1251 16.0417C10.7088 16.0417 8.75008 14.0829 8.75008 11.6667Z" fill="#34C231" fill-opacity="0.6"/>
<path d="M24.6582 11.985C24.2479 11.7758 23.7939 11.6668 23.3334 11.6668V8.75009C24.2545 8.75009 25.1625 8.96811 25.9831 9.38649C26.0734 9.43257 26.1625 9.48093 26.2501 9.53152C26.9579 9.9402 27.5731 10.4937 28.0545 11.1571C28.5955 11.9025 28.9523 12.7655 29.0956 13.6753C29.239 14.5852 29.1649 15.516 28.8794 16.3917C28.5938 17.2674 28.1049 18.0631 27.4528 18.7135C26.8006 19.364 26.0037 19.8507 25.1273 20.134C24.3474 20.386 23.5242 20.4706 22.7115 20.3834C22.6109 20.3726 22.5105 20.3592 22.4103 20.3432C21.5015 20.1975 20.64 19.8388 19.8963 19.2965L19.8948 19.2954L21.6141 16.9394C21.9861 17.2108 22.4172 17.3903 22.8719 17.4632C23.3266 17.536 23.7921 17.5002 24.2303 17.3586C24.6685 17.217 25.067 16.9736 25.393 16.6484C25.7191 16.3232 25.9635 15.9253 26.1063 15.4875C26.2491 15.0497 26.2861 14.5843 26.2144 14.1293C26.1428 13.6744 25.9644 13.243 25.6939 12.8702C25.4234 12.4975 25.0685 12.1942 24.6582 11.985Z" fill="#34C231" fill-opacity="0.6"/>
<path d="M29.164 30.625C29.164 29.8593 29.0132 29.1011 28.7202 28.3937C28.4271 27.6863 27.9977 27.0436 27.4562 26.5022C26.9148 25.9607 26.2721 25.5313 25.5647 25.2383C24.8573 24.9452 24.0991 24.7944 23.3334 24.7944V21.875C24.3281 21.875 25.3144 22.0446 26.2501 22.3754C26.3953 22.4268 26.5393 22.482 26.6819 22.5411C27.7435 22.9808 28.7081 23.6253 29.5206 24.4378C30.3331 25.2503 30.9776 26.2149 31.4174 27.2765C31.4764 27.4191 31.5317 27.5631 31.583 27.7083C31.9138 28.644 32.0834 29.6303 32.0834 30.625H29.164Z" fill="#34C231" fill-opacity="0.6"/>
<path d="M23.3334 30.625H20.4167C20.4167 26.5979 17.1522 23.3333 13.1251 23.3333C9.098 23.3333 5.83341 26.5979 5.83341 30.625H2.91675C2.91675 24.9871 7.48717 20.4167 13.1251 20.4167C18.763 20.4167 23.3334 24.9871 23.3334 30.625Z" fill="#34C231" fill-opacity="0.6"/>
</svg>
