<svg width="355" height="372" viewBox="0 0 355 372" fill="none" xmlns="http://www.w3.org/2000/svg">
<path d="M265.701 50.0047L265.692 50.0002L178.49 3.82317C178.287 3.72231 178.046 3.59599 177.85 3.49401C177.75 3.44174 177.663 3.39586 177.599 3.3631C177.334 3.22768 177.158 3.14594 177.017 3.09291C176.997 3.08543 176.979 3.07895 176.963 3.07335C174.108 4.40358 171.372 5.92291 168.537 7.49724C167.375 8.14273 166.196 8.79746 164.985 9.4522C164.984 9.45282 164.983 9.45343 164.982 9.45405L5.12114 96.4203L5.11419 96.4241L5.10721 96.4278C4.67912 96.6578 4.27142 96.8274 3.93905 96.9567C3.78531 97.0165 3.63349 97.0731 3.50492 97.121L3.47757 97.1312C3.47474 97.1322 3.47193 97.1333 3.46913 97.1343L3.47021 277.225C3.92875 277.479 4.53033 277.779 5.27439 278.12C5.71138 278.32 6.2153 278.541 6.73011 278.767C7.66249 279.176 8.63055 279.601 9.30121 279.944L9.31523 279.951L9.32918 279.959L176.412 367.659L176.431 367.669L176.45 367.679C176.569 367.743 176.681 367.809 176.785 367.871L351.216 273.881C350.649 267.683 350.699 261.439 350.749 255.379C350.762 253.734 350.775 252.103 350.776 250.49C350.776 250.489 350.776 250.489 350.776 250.489L350.79 96.4819C350.79 96.4819 350.79 96.4818 350.79 96.4817V96.4787L353.79 96.479C353.79 96.1362 353.804 95.804 353.818 95.4849C353.888 93.897 353.944 92.6318 352.073 91.994L265.701 50.0047ZM265.701 50.0047L265.709 50.0091L341.494 89.5242C342.326 89.9957 343.135 90.5069 344.023 91.0682C344.594 91.4287 345.197 91.81 345.861 92.2148C347.368 93.1345 349.081 94.1055 350.843 94.7415L265.701 50.0047ZM176.847 3.03972C176.842 3.03933 176.84 3.03889 176.84 3.03877C176.84 3.03864 176.842 3.03884 176.847 3.03972Z" fill="white" stroke="#F24746" stroke-width="6"/>
<path d="M50.13 86.847L50.197 86.831C66.703 85.419 84.829 100.771 86.705 117.103C89.073 137.72 74.884 154.897 54.379 157.154C24.944 160.04 6.27023 123.404 25.043 100.471C31.522 92.557 39.947 87.855 50.13 86.847Z" fill="#CC753A"/>
<path d="M50.8759 99.837C55.3899 99.437 60.8499 101.344 64.5109 103.916C81.5189 115.862 74.5519 141.15 53.9729 144.276C25.1769 144.578 19.9608 104.225 50.8759 99.837Z" fill="white"/>
<path d="M48.762 111.299C65.586 109.888 70.977 126.922 56.228 133.097C40.736 136.457 33.096 114.378 48.762 111.299Z" fill="#CC753A"/>
<path d="M299.142 84.345C315.882 81.885 334.903 97.315 337.936 113.411C341.567 132.675 326.983 151.107 308.234 154.429L307.116 154.612C288.035 157.148 270.829 142.643 268.439 123.879C266.04 105.052 280.26 86.551 299.142 84.345Z" fill="#02C069"/>
<path d="M300.174 97.828C305.355 97.296 309.945 98.316 314.375 101.044C333.903 113.072 325.316 137.678 305.373 142.138C277.779 145.419 267.854 102.706 300.174 97.828Z" fill="white"/>
<path d="M300.382 106.565C317.69 105.32 322.487 128.189 305.585 132.427C285.52 132.776 284.441 108.94 300.382 106.565Z" fill="#02C069"/>
<path d="M174.682 275.357C191.033 274.465 209.052 288.261 211.3 304.739C214.205 326.032 200.882 343.603 179.46 346.482C162.681 347.02 148.419 336.639 143.521 320.665C137.048 299.555 152.433 277.05 174.682 275.357Z" fill="#F24746"/>
<path d="M175.389 287.847C180.641 287.365 186.899 289.743 190.894 293.062C206.648 306.153 198.286 331.782 178.312 333.362L178.099 333.388C166.087 334.652 155.716 323.828 154.513 312.398C153.209 300.016 163.408 289.144 175.389 287.847Z" fill="white"/>
<path d="M175.229 297.072C192.407 295.003 195.673 319.563 178.838 323.682C160.954 326.931 157.898 300.21 175.229 297.072Z" fill="#F24746"/>
<path d="M173.91 21.845C202.852 18.8927 223.471 54.778 205.314 78.259C199.408 85.896 190.632 91.45 181.003 92.658C161.76 93.72 145.134 80.715 142.731 61.294C140.307 41.705 154.385 24.1375 173.91 21.845Z" fill="#1C6DAE"/>
<path d="M176.294 34.607C178.148 34.382 180.478 34.781 182.289 35.21C208.757 41.483 203.335 79.236 178.322 80.811C148.74 81.605 145.11 37.233 176.294 34.607Z" fill="white"/>
<path d="M176.107 44.325C192.511 43.139 196.321 66.955 178.987 70.776C160.067 71.04 158.327 46.745 176.107 44.325Z" fill="#1C6DAE"/>
<path d="M300.914 209.843C317.482 207.872 335.161 223.416 337.659 239.328C341.237 262.109 327.989 279.015 305.32 282.159C302.76 282.364 300.182 282.539 297.625 282.238C284.129 280.645 270.372 266.899 268.686 253.617C265.938 231.986 278.81 212.618 300.914 209.843Z" fill="#F24746"/>
<path d="M300.419 223.337C328.681 220.388 337.155 263.923 306.123 269.224C303.288 269.412 300.247 269.629 297.47 268.904L297 268.779C273.169 262.678 275.669 227.011 300.419 223.337Z" fill="white"/>
<path d="M301.618 231.804C319.903 231.132 322.924 256.525 304.306 260.475C285.508 262.21 282.534 235.31 301.618 231.804Z" fill="#F24746"/>
<path d="M47.646 213.338C91.502 209.293 103.034 276.52 54.215 285.429C27.503 290.435 3.9143 253.01 22.534 227.875C28.754 219.479 37.429 214.805 47.646 213.338Z" fill="#1C6DAE"/>
<path d="M49.2219 226.343C50.6759 226.104 52.5049 226.188 53.9649 226.398L54.3749 226.461C81.1979 230.349 79.8049 269.026 52.3139 272.88C25.4669 275.322 16.1232 230.957 49.2219 226.343Z" fill="white"/>
<path d="M48.612 236.033C65.4 234.065 71.721 256.79 53.638 262.682L53.44 262.708C35.499 264.885 31.05 239.759 48.612 236.033Z" fill="#1C6DAE"/>
<path d="M205.652 105.737C206.729 105.552 208.204 105.728 209.319 105.728L232.982 105.696C240.99 105.654 251.527 105.132 252.258 116.681C252.628 122.537 252.269 128.626 252.266 134.511L252.258 253.25C252.229 254.606 252.001 256.345 251.4 257.562L251.24 257.875C247.655 265.066 242.708 263.492 235.86 263.484L148.375 263.48L123.81 263.477C119.053 263.474 112.11 264.685 107.768 262.398L107.5 262.255C100.781 258.832 101.583 251.041 101.597 244.757L101.614 118.422C101.761 112.527 105.537 106.768 111.79 105.831C114.607 105.409 117.875 105.729 120.743 105.729L205.652 105.737Z" fill="#1C6DAE"/>
<path d="M206.742 136.329C208.153 136.267 209.518 136.213 210.923 136.396L211.375 136.46C228.582 138.77 230.087 164.785 210.829 168.493C187.99 169.08 185.729 139.865 206.742 136.329Z" fill="white"/>
<path d="M142.346 136.284C164.201 134.17 168.681 163.128 148.247 168.444C127.083 171.476 121.163 140.911 142.346 136.284Z" fill="white"/>
<path d="M143.564 199.314L146.165 199.291C165.902 200.945 166.51 228.288 147.433 231.988C125.539 233.853 122.511 203.037 143.564 199.314Z" fill="white"/>
<path d="M208.171 199.355C229.255 200.085 231.319 229.532 209.272 232.305C188.481 232.25 185.626 201.416 208.171 199.355Z" fill="white"/>
</svg>
