<svg width="27" height="27" viewBox="0 0 27 27" fill="none" xmlns="http://www.w3.org/2000/svg">
<path d="M7.36656 21.6248L8.31959 22.1343C9.79651 22.9239 11.4459 23.3358 13.1206 23.3333L13.125 23.3333C18.7631 23.3333 23.3333 18.7631 23.3333 13.125C23.3333 7.48689 18.7631 2.91667 13.125 2.91667C7.48691 2.91667 2.91668 7.48689 2.91668 13.125V13.1294C2.91416 14.8041 3.32606 16.4535 4.11566 17.9304L4.62518 18.8834L3.84173 22.4083L7.36656 21.6248ZM1.48135e-05 26.25L1.54351 19.3056C0.527025 17.4042 -0.00323118 15.281 1.48135e-05 13.125C1.48135e-05 5.87606 5.87607 0 13.125 0C20.3739 0 26.25 5.87606 26.25 13.125C26.25 20.3739 20.3739 26.25 13.125 26.25C10.969 26.2532 8.84576 25.723 6.94445 24.7065L1.48135e-05 26.25Z" fill="#229D1F"/>
</svg>
