<svg width="35" height="35" viewBox="0 0 35 35" fill="none" xmlns="http://www.w3.org/2000/svg">
<path d="M20.1541 32.0833H14.8457C14.1605 32.0833 13.5676 31.6064 13.4209 30.937L12.8274 28.1895C12.0356 27.8426 11.2848 27.4088 10.5889 26.896L7.9099 27.7491C7.25657 27.9575 6.54634 27.6825 6.20365 27.0885L3.54365 22.4933C3.20472 21.899 3.32149 21.1494 3.82511 20.6864L5.90323 18.7906C5.80873 17.9318 5.80873 17.0652 5.90323 16.2064L3.82511 14.315C3.32074 13.8517 3.20393 13.1012 3.54365 12.5066L6.19782 7.9085C6.54051 7.31452 7.25074 7.03953 7.90407 7.24788L10.583 8.101C10.939 7.83727 11.3095 7.59383 11.6928 7.37183C12.0608 7.1643 12.4395 6.9764 12.8274 6.80892L13.4224 4.06433C13.5683 3.39491 14.1606 2.91735 14.8457 2.91663H20.1541C20.8392 2.91735 21.4315 3.39491 21.5774 4.06433L22.1782 6.81038C22.5877 6.9905 22.9865 7.19403 23.3726 7.41996C23.7327 7.62823 24.0808 7.85657 24.4153 8.10392L27.0957 7.25079C27.7486 7.04323 28.458 7.31811 28.8005 7.91142L31.4547 12.5095C31.7936 13.1038 31.6769 13.8534 31.1732 14.3164L29.0951 16.2122C29.1896 17.071 29.1896 17.9376 29.0951 18.7964L31.1732 20.6923C31.6769 21.1553 31.7936 21.9049 31.4547 22.4991L28.8005 27.0972C28.458 27.6906 27.7486 27.9654 27.0957 27.7579L24.4153 26.9047C24.0761 27.1546 23.7237 27.3858 23.3595 27.5975C22.9771 27.819 22.5828 28.0191 22.1782 28.1968L21.5774 30.937C21.4309 31.6059 20.8388 32.0827 20.1541 32.0833ZM11.1124 23.6672L12.3082 24.5423C12.5778 24.7408 12.8588 24.9234 13.1497 25.0891C13.4234 25.2477 13.7053 25.3917 13.9941 25.5208L15.3547 26.1173L16.0212 29.1666H18.9816L19.648 26.1158L21.0087 25.5193C21.6026 25.2574 22.1664 24.9317 22.6901 24.5481L23.8874 23.6731L26.8639 24.621L28.3441 22.0572L26.0355 19.9529L26.1989 18.477C26.2706 17.8315 26.2706 17.1801 26.1989 16.5345L26.0355 15.0587L28.3455 12.95L26.8639 10.3848L23.8874 11.3327L22.6901 10.4577C22.1663 10.0722 21.6025 9.74418 21.0087 9.47913L19.648 8.88267L18.9816 5.83329H16.0212L15.3518 8.88413L13.9941 9.47913C13.705 9.60606 13.4232 9.74871 13.1497 9.90642C12.8606 10.0717 12.5811 10.2533 12.3126 10.4504L11.1153 11.3254L8.14032 10.3775L6.65719 12.95L8.96574 15.0514L8.8024 16.5287C8.73066 17.1742 8.73066 17.8257 8.8024 18.4712L8.96574 19.947L6.65719 22.0514L8.1374 24.6152L11.1124 23.6672ZM17.4941 23.3333C14.2724 23.3333 11.6607 20.7216 11.6607 17.5C11.6607 14.2783 14.2724 11.6666 17.4941 11.6666C20.7157 11.6666 23.3274 14.2783 23.3274 17.5C23.3234 20.72 20.7141 23.3293 17.4941 23.3333ZM17.4941 14.5833C15.9007 14.5849 14.6035 15.8649 14.5807 17.4582C14.5578 19.0514 15.8178 20.3681 17.4105 20.4153C19.0032 20.4626 20.339 19.223 20.4107 17.6312V18.2145V17.5C20.4107 15.8891 19.1049 14.5833 17.4941 14.5833Z" fill="#34C231" fill-opacity="0.6"/>
</svg>
